<?xml version="1.0" encoding="utf-8"?>
<!-- Generator: Adobe Illustrator 23.1.1, SVG Export Plug-In . SVG Version: 6.00 Build 0)  -->
<svg version="1.1" id="Warstwa_1" xmlns="http://www.w3.org/2000/svg" xmlns:xlink="http://www.w3.org/1999/xlink" height="29px" width="172px"
	 viewBox="0 0 152.2 25.5" style="enable-background:new 0 0 152.2 25.5;" xml:space="preserve">
<style type="text/css">
	.st0{fill:#2196F3;}
	.st1{fill:#FFFFFF;}
</style>
<path class="st0" d="M33.4,1h-2.6c-0.3,0-0.5,0.1-0.7,0.2s-0.3,0.4-0.3,0.6l-6.6,16.7l0,0l-2.6,6.3h2.6c0.3,0,0.5-0.1,0.7-0.2
	c0.2-0.1,0.3-0.3,0.4-0.5l6.6-16.7l0,0L33.4,1z"/>
<path class="st0" d="M33.4,1h-2.6c-0.3,0-0.5,0.1-0.7,0.2s-0.3,0.4-0.3,0.6l-6.6,16.7l0,0l-2.6,6.3h2.6c0.3,0,0.5-0.1,0.7-0.2
	c0.2-0.1,0.3-0.3,0.4-0.5l6.6-16.7l0,0L33.4,1z"/>
<path class="st1" d="M1.3,1h2.5c0.3,0,0.5,0.1,0.7,0.2s0.3,0.3,0.4,0.5l6.7,16.7c0.2,0.4,0.3,0.8,0.4,1.2c0.1,0.4,0.2,0.9,0.4,1.4
	c0.1-0.5,0.2-0.9,0.3-1.4c0.1-0.4,0.2-0.8,0.4-1.2l6.7-16.6c0-0.2,0.2-0.4,0.4-0.6S20.6,1,20.9,1h2.6l-9.7,23.6h-2.9L1.3,1z"/>
<g>
	<path class="st1" d="M45.6,24.6h-3.2V1h3.2V24.6z"/>
	<path class="st1" d="M60.7,14.7v9.9h-3.2V1h6.7c1.5,0,2.8,0.2,3.9,0.5c1.1,0.3,2,0.7,2.7,1.3c0.7,0.6,1.2,1.3,1.6,2.1
		c0.3,0.8,0.5,1.7,0.5,2.7c0,0.8-0.1,1.6-0.4,2.3c-0.3,0.7-0.6,1.4-1.1,2s-1.1,1.1-1.8,1.5c-0.7,0.4-1.5,0.7-2.5,0.9
		c0.4,0.2,0.7,0.6,1.1,1l6.9,9.4h-2.8c-0.6,0-1-0.2-1.3-0.7l-6.2-8.5c-0.2-0.3-0.4-0.5-0.6-0.6s-0.5-0.2-1-0.2
		C63.2,14.7,60.7,14.7,60.7,14.7z M60.7,12.4H64c0.9,0,1.8-0.1,2.5-0.3c0.7-0.2,1.3-0.5,1.8-1c0.5-0.4,0.8-0.9,1.1-1.5
		c0.2-0.6,0.4-1.2,0.4-1.9c0-1.4-0.5-2.5-1.4-3.2s-2.3-1.1-4.1-1.1h-3.5v9H60.7z"/>
	<path class="st1" d="M99,1v2.6h-7.6v21h-3.2v-21h-7.7V1H99z"/>
	<path class="st1" d="M116.8,22.1c1,0,1.9-0.2,2.6-0.5c0.8-0.3,1.4-0.8,2-1.4s0.9-1.3,1.2-2.1c0.3-0.8,0.4-1.7,0.4-2.7V1h3.2v14.4
		c0,1.4-0.2,2.6-0.7,3.8c-0.4,1.2-1.1,2.2-1.9,3s-1.8,1.5-3,2s-2.5,0.7-3.9,0.7s-2.8-0.2-3.9-0.7c-1.2-0.5-2.2-1.2-3-2
		c-0.8-0.9-1.4-1.9-1.9-3c-0.4-1.2-0.7-2.4-0.7-3.8V1h3.2v14.4c0,1,0.1,1.9,0.4,2.7c0.3,0.8,0.7,1.5,1.2,2.1s1.2,1.1,2,1.4
		C115,21.9,115.9,22.1,116.8,22.1z"/>
	<path class="st1" d="M149.1,4.7c-0.1,0.2-0.2,0.3-0.3,0.4c-0.1,0.1-0.3,0.1-0.4,0.1c-0.2,0-0.4-0.1-0.7-0.3
		c-0.2-0.2-0.6-0.4-0.9-0.6c-0.4-0.2-0.8-0.4-1.4-0.6c-0.5-0.2-1.2-0.3-1.9-0.3s-1.3,0.1-1.9,0.3c-0.6,0.2-1,0.5-1.4,0.8
		s-0.6,0.7-0.8,1.2c-0.2,0.4-0.3,0.9-0.3,1.4c0,0.7,0.2,1.2,0.5,1.6c0.3,0.4,0.8,0.8,1.3,1.1s1.1,0.6,1.8,0.8
		c0.7,0.2,1.4,0.5,2.1,0.7s1.4,0.5,2.1,0.8c0.7,0.3,1.3,0.7,1.8,1.1c0.5,0.5,1,1,1.3,1.7s0.5,1.5,0.5,2.5s-0.2,2-0.5,2.9
		c-0.4,0.9-0.9,1.7-1.5,2.4c-0.7,0.7-1.5,1.2-2.5,1.6s-2.1,0.6-3.4,0.6c-1.5,0-2.9-0.3-4.2-0.8s-2.3-1.3-3.2-2.3l0.9-1.5
		c0.1-0.1,0.2-0.2,0.3-0.3c0.1-0.1,0.3-0.1,0.4-0.1c0.2,0,0.5,0.1,0.8,0.4c0.3,0.2,0.7,0.5,1.1,0.8c0.4,0.3,1,0.6,1.6,0.8
		c0.6,0.2,1.4,0.4,2.3,0.4c0.8,0,1.4-0.1,2-0.3c0.6-0.2,1.1-0.5,1.5-0.9s0.7-0.8,0.9-1.4c0.2-0.5,0.3-1.1,0.3-1.8
		c0-0.7-0.2-1.3-0.5-1.8s-0.8-0.8-1.3-1.1c-0.5-0.3-1.1-0.6-1.8-0.8c-0.7-0.2-1.4-0.4-2.1-0.7s-1.4-0.5-2.1-0.8s-1.3-0.7-1.8-1.2
		s-1-1.1-1.3-1.8c-0.3-0.7-0.5-1.6-0.5-2.6c0-0.8,0.2-1.6,0.5-2.4c0.3-0.8,0.8-1.5,1.4-2.1c0.6-0.6,1.4-1.1,2.3-1.5
		c0.9-0.4,1.9-0.5,3.1-0.5c1.3,0,2.5,0.2,3.6,0.6s2,1,2.9,1.8L149.1,4.7z"/>
</g>
</svg>
